<svg xmlns="http://www.w3.org/2000/svg" xmlns:xlink="http://www.w3.org/1999/xlink" width="500" zoomAndPan="magnify" viewBox="0 0 375 374.999991" height="500" preserveAspectRatio="xMidYMid meet" version="1.0">
	<path stroke-linecap="butt" transform="matrix(0.000000000000000229, -3.744754, 3.75, 0.00000000000000023, 280.425953, 243.502249)" fill="none" stroke-linejoin="miter" d="M -0.000442603 -0.0000458761 L 29.041228 -0.0000458761 " stroke="#ffffff" stroke-width="1" stroke-opacity="1" stroke-miterlimit="4"/>
	<path stroke-linecap="butt" transform="matrix(3.258679, -1.881399, 1.875, 3.247595, 186.240535, 296.953339)" fill="none" stroke-linejoin="miter" d="M 0.000408829 0.000170979 L 29.30068 0.000328076 " stroke="#ffffff" stroke-width="1" stroke-opacity="1" stroke-miterlimit="4"/>
	<path stroke-linecap="butt" transform="matrix(3.240262, 1.870766, -1.875, 3.247595, 93.515082, 242.454126)" fill="none" stroke-linejoin="miter" d="M -0.00000793948 -0.000303556 L 29.067818 -0.000367395 " stroke="#ffffff" stroke-width="1" stroke-opacity="1" stroke-miterlimit="4"/>
	<path stroke-linecap="butt" transform="matrix(3.208553, 1.937993, -1.938812, 3.209908, 185.374269, 78.916752)" fill="none" stroke-linejoin="miter" d="M 0.000334778 0.000177057 L 29.612189 -0.0000886627 " stroke="#ffffff" stroke-width="1" stroke-opacity="1" stroke-miterlimit="4"/>
	<path stroke-linecap="butt" transform="matrix(3.167391, -2.012802, 2.011284, 3.165001, 93.515192, 136.616475)" fill="none" stroke-linejoin="miter" d="M -0.00000443448 0.000222289 L 28.979711 -0.000283568 " stroke="#ffffff" stroke-width="1" stroke-opacity="1" stroke-miterlimit="4"/>
	<path stroke-linecap="butt" transform="matrix(0.000000000000000229, -3.744754, 3.75, 0.00000000000000023, 94.38284, 244.133538)" fill="none" stroke-linejoin="miter" d="M 0.000193622 -0.00000730725 L 29.041864 -0.00000730725 " stroke="#ffffff" stroke-width="1" stroke-opacity="1" stroke-miterlimit="4"/>
	<path stroke-linecap="butt" transform="matrix(1.812483, -3.28078, 3.282401, 1.813379, 94.485423, 243.502484)" fill="none" stroke-linejoin="miter" d="M -0.000467357 -0.0000612416 L 50.626142 0.000497055 " stroke="#ffffff" stroke-width="1" stroke-opacity="1" stroke-miterlimit="4"/>
	<path stroke-linecap="butt" transform="matrix(-2.282667, -2.970509, 2.973471, -2.284943, 248.962049, 162.106043)" fill="none" stroke-linejoin="miter" d="M 0.000302309 -0.000141713 L 28.228064 0.000185564 " stroke="#ffffff" stroke-width="1" stroke-opacity="1" stroke-miterlimit="4"/>
	<path stroke-linecap="butt" transform="matrix(2.877378, -2.396953, 2.400182, 2.881254, 247.820907, 163.248623)" fill="none" stroke-linejoin="miter" d="M -0.000357257 0.000180752 L 11.616212 0.000395787 " stroke="#ffffff" stroke-width="1" stroke-opacity="1" stroke-miterlimit="4"/>
	<path stroke-linecap="butt" transform="matrix(3.613024, -0.968107, 0.970571, 3.622221, 120.585085, 195.8803)" fill="none" stroke-linejoin="miter" d="M 0.000316483 -0.000300174 L 35.692367 0.000511346 " stroke="#ffffff" stroke-width="1" stroke-opacity="1" stroke-miterlimit="4"/>
	<path stroke-linecap="butt" transform="matrix(1.466824, 3.461609, -3.452804, 1.463093, 95.262089, 135.907959)" fill="none" stroke-linejoin="miter" d="M -0.000457036 -0.0000867983 L 17.158579 0.000294897 " stroke="#ffffff" stroke-width="1" stroke-opacity="1" stroke-miterlimit="4"/>
	<path stroke-linecap="butt" transform="matrix(2.113166, 3.089444, -3.095212, 2.117111, 120.137442, 195.881471)" fill="none" stroke-linejoin="miter" d="M 0.00018667 0.000361179 L 31.859142 0.0000475797 " stroke="#ffffff" stroke-width="1" stroke-opacity="1" stroke-miterlimit="4"/>
	<path stroke-linecap="butt" transform="matrix(-1.413367, -3.478545, 3.474177, -1.411593, 280.171949, 240.370415)" fill="none" stroke-linejoin="miter" d="M -0.000160122 -0.000086528 L 22.373476 0.000222793 " stroke="#ffffff" stroke-width="1" stroke-opacity="1" stroke-miterlimit="4"/>
	<path stroke-linecap="butt" transform="matrix(3.288617, 1.789626, -1.79248, 3.29386, 121.175533, 194.824557)" fill="none" stroke-linejoin="miter" d="M 0.0000150007 -0.000110783 L 29.449347 -0.000164214 " stroke="#ffffff" stroke-width="1" stroke-opacity="1" stroke-miterlimit="4"/>
	<path stroke-linecap="butt" transform="matrix(2.165175, -3.042273, 3.055238, 2.174402, 187.303807, 293.911387)" fill="none" stroke-linejoin="miter" d="M 0.000405344 0.00000106635 L 15.465839 -0.000324964 " stroke="#ffffff" stroke-width="1" stroke-opacity="1" stroke-miterlimit="4"/>
	<path stroke-linecap="butt" transform="matrix(1.204577, -3.540893, 3.550192, 1.207741, 219.944361, 246.657524)" fill="none" stroke-linejoin="miter" d="M 0.000404337 0.00013075 L 23.863454 0.000469387 " stroke="#ffffff" stroke-width="1" stroke-opacity="1" stroke-miterlimit="4"/>
	<path stroke-linecap="butt" transform="matrix(3.735728, -0.519493, 0.516508, 3.714259, 216.770337, 249.652248)" fill="none" stroke-linejoin="miter" d="M -0.0002152 -0.00000442913 L 17.301061 -0.000108724 " stroke="#ffffff" stroke-width="1" stroke-opacity="1" stroke-miterlimit="4"/>
</svg>
